<svg width="73" height="48" viewBox="0 0 73 48" fill="none" xmlns="http://www.w3.org/2000/svg">
    <path fill-rule="evenodd" clip-rule="evenodd"
          d="M21 42.9998C32.598 42.9998 42 33.5978 42 21.9998C42 10.4018 32.598 0.999779 21 0.999779C9.40202 0.999779 0 10.4018 0 21.9998C0 33.5978 9.40202 42.9998 21 42.9998ZM21 36.9998C29.2843 36.9998 36 30.284 36 21.9998C36 13.7155 29.2843 6.99978 21 6.99978C12.7157 6.99978 6 13.7155 6 21.9998C6 30.284 12.7157 36.9998 21 36.9998Z"
          fill="#000"/>
    <circle cx="21" cy="22" r="12" fill="#000"/>
    <circle cx="70" cy="23" r="3" fill="#000"/>
    <path d="M58.7814 9.48583C58.7814 2.79665 58.3557 0.821248 56.6942 0.240885L56.4983 8.88129C56.4983 9.29654 56.1701 9.64176 55.7668 9.64176H55.5084C55.105 9.64176 54.7768 9.29654 54.7768 8.87211L54.0221 -9.91821e-05C53.8191 -9.91821e-05 53.6107 0.000734711 53.3907 0.000734711C53.0097 0.000734711 52.6583 0.00323625 52.3292 0.0107409L51.5753 8.90463C51.5762 9.29571 51.2489 9.64093 50.8456 9.64093H50.5871C50.1838 9.64093 49.8556 9.29571 49.8556 8.87128L49.6634 0.448515C48.0027 1.2807 48 3.64635 48 10.333C48 12.1542 48.3506 13.5976 49.1787 14.594C49.4434 15.136 49.7582 15.7773 50.0917 16.4485C50.6059 17.4858 51.1604 18.5874 51.6451 19.5179L50.8832 46.8142C50.8832 47.4571 52.3516 47.9999 53.0419 47.9999H54.1786C54.869 47.9999 56.3374 47.4012 56.3374 46.7575L55.5647 19.1519L57.3327 14.8467L57.6323 14.1162C58.438 12.9138 58.7814 11.2845 58.7814 9.48583Z"
          fill="#000"/>
</svg>
