<svg width="18" height="18" viewBox="0 0 18 18" fill="none" xmlns="http://www.w3.org/2000/svg">
    <path d="M3.6 0H1.2C0.54 0 0 0.54 0 1.2V3.6C0 4.26 0.54 4.8 1.2 4.8H3.6C4.26 4.8 4.8 4.26 4.8 3.6V1.2C4.8 0.54 4.26 0 3.6 0Z"
          fill="#000"/>
    <path d="M10.2 0H7.8C7.14 0 6.6 0.54 6.6 1.2V3.6C6.6 4.26 7.14 4.8 7.8 4.8H10.2C10.86 4.8 11.4 4.26 11.4 3.6V1.2C11.4 0.54 10.86 0 10.2 0Z"
          fill="#000"/>
    <path d="M16.8 0H14.4C13.74 0 13.2 0.54 13.2 1.2V3.6C13.2 4.26 13.74 4.8 14.4 4.8H16.8C17.46 4.8 18 4.26 18 3.6V1.2C18 0.54 17.46 0 16.8 0Z"
          fill="#000"/>
    <path d="M3.6 6.60001H1.2C0.54 6.60001 0 7.14001 0 7.80001V10.2C0 10.86 0.54 11.4 1.2 11.4H3.6C4.26 11.4 4.8 10.86 4.8 10.2V7.80001C4.8 7.14001 4.26 6.60001 3.6 6.60001Z"
          fill="#000"/>
    <path d="M10.2 6.60001H7.8C7.14 6.60001 6.6 7.14001 6.6 7.80001V10.2C6.6 10.86 7.14 11.4 7.8 11.4H10.2C10.86 11.4 11.4 10.86 11.4 10.2V7.80001C11.4 7.14001 10.86 6.60001 10.2 6.60001Z"
          fill="#000"/>
    <path d="M16.8 6.60001H14.4C13.74 6.60001 13.2 7.14001 13.2 7.80001V10.2C13.2 10.86 13.74 11.4 14.4 11.4H16.8C17.46 11.4 18 10.86 18 10.2V7.80001C18 7.14001 17.46 6.60001 16.8 6.60001Z"
          fill="#000"/>
    <path d="M3.6 13.2H1.2C0.54 13.2 0 13.74 0 14.4V16.8C0 17.46 0.54 18 1.2 18H3.6C4.26 18 4.8 17.46 4.8 16.8V14.4C4.8 13.74 4.26 13.2 3.6 13.2Z"
          fill="#000"/>
    <path d="M10.2 13.2H7.8C7.14 13.2 6.6 13.74 6.6 14.4V16.8C6.6 17.46 7.14 18 7.8 18H10.2C10.86 18 11.4 17.46 11.4 16.8V14.4C11.4 13.74 10.86 13.2 10.2 13.2Z"
          fill="#000"/>
    <path d="M16.8 13.2H14.4C13.74 13.2 13.2 13.74 13.2 14.4V16.8C13.2 17.46 13.74 18 14.4 18H16.8C17.46 18 18 17.46 18 16.8V14.4C18 13.74 17.46 13.2 16.8 13.2Z"
          fill="#000"/>
</svg>
