<svg width="18" height="18" viewBox="0 0 18 18" fill="none" xmlns="http://www.w3.org/2000/svg">
    <path d="M18 15.36V16.2C18 17.19 17.19 18 16.2 18H1.8C0.81 18 0 17.19 0 16.2V15.36C0 13.17 2.55 11.85 4.95 10.8C5.04 10.77 5.1 10.74 5.19 10.68C5.37 10.59 5.58 10.59 5.76 10.71C6.72 11.34 7.83 11.7 9 11.7C10.17 11.7 11.28 11.34 12.24 10.74C12.42 10.62 12.63 10.62 12.81 10.71C12.9 10.74 12.96 10.77 13.05 10.83C15.45 11.85 18 13.17 18 15.36Z"
          fill="#000"/>
    <path d="M9 9.9C11.4687 9.9 13.47 7.68381 13.47 4.95C13.47 2.21619 11.4687 0 9 0C6.53129 0 4.53 2.21619 4.53 4.95C4.53 7.68381 6.53129 9.9 9 9.9Z"
          fill="#000"/>
</svg>
