<svg width="71" height="48" viewBox="0 0 71 48" fill="none" xmlns="http://www.w3.org/2000/svg">
    <path fill-rule="evenodd" clip-rule="evenodd"
          d="M50 43C61.598 43 71 33.598 71 22C71 10.402 61.598 1 50 1C38.402 1 29 10.402 29 22C29 33.598 38.402 43 50 43ZM50 37C58.2843 37 65 30.2843 65 22C65 13.7157 58.2843 7 50 7C41.7157 7 35 13.7157 35 22C35 30.2843 41.7157 37 50 37Z"
          fill="#000"/>
    <circle cx="50" cy="22" r="12" fill="#000"/>
    <circle cx="3" cy="23" r="3" fill="#000"/>
    <path d="M24.8937 9.48593C24.8937 2.79675 24.4681 0.821347 22.8065 0.240984L22.6106 8.88138C22.6106 9.29664 22.2824 9.64186 21.8791 9.64186H21.6207C21.2173 9.64186 20.8891 9.29664 20.8891 8.87221L20.1344 0C19.9314 0 19.723 0.000833893 19.503 0.000833893C19.1221 0.000833893 18.7706 0.00333543 18.4415 0.0108401L17.6876 8.90473C17.6885 9.29581 17.3612 9.64103 16.9579 9.64103H16.6995C16.2961 9.64103 15.9679 9.29581 15.9679 8.87138L15.7757 0.448614C14.115 1.2808 14.1123 3.64645 14.1123 10.3331C14.1123 12.1543 14.4629 13.5977 15.291 14.5941C15.5557 15.1361 15.8705 15.7774 16.204 16.4486C16.7182 17.4859 17.2727 18.5875 17.7574 19.518L16.9955 46.8143C16.9955 47.4572 18.4639 48 19.1542 48H20.2909C20.9813 48 22.4497 47.4013 22.4497 46.7576L21.677 19.152L23.445 14.8468L23.7446 14.1163C24.5503 12.9139 24.8937 11.2846 24.8937 9.48593Z"
          fill="#000"/>
</svg>
