<svg width="72" height="48" viewBox="0 0 72 48" fill="none" xmlns="http://www.w3.org/2000/svg">
    <path fill-rule="evenodd" clip-rule="evenodd"
          d="M51 45C62.598 45 72 35.598 72 24C72 12.402 62.598 2.99999 51 2.99999C39.402 2.99999 30 12.402 30 24C30 35.598 39.402 45 51 45ZM51 39C59.2843 39 66 32.2843 66 24C66 15.7157 59.2843 8.99999 51 8.99999C42.7157 8.99999 36 15.7157 36 24C36 32.2843 42.7157 39 51 39Z"
          fill="#000"/>
    <circle cx="51" cy="24" r="12" fill="#000"/>
    <circle cx="20" cy="25" r="3" fill="#000"/>
    <path d="M10.7814 9.48593C10.7814 2.79675 10.3557 0.821347 8.69418 0.240984L8.49833 8.88138C8.49833 9.29664 8.17013 9.64186 7.76681 9.64186H7.50836C7.10504 9.64186 6.77684 9.29664 6.77684 8.87221L6.02207 0C5.81907 0 5.6107 0.000833893 5.39071 0.000833893C5.00975 0.000833893 4.6583 0.00333543 4.3292 0.0108401L3.57533 8.90473C3.57622 9.29581 3.24891 9.64103 2.84559 9.64103H2.58715C2.18383 9.64103 1.85563 9.29581 1.85563 8.87138L1.66336 0.448614C0.00268253 1.2808 0 3.64645 0 10.3331C0 12.1543 0.350557 13.5977 1.17866 14.5941C1.44337 15.1361 1.75815 15.7774 2.09172 16.4486C2.60593 17.4859 3.16038 18.5875 3.64508 19.518L2.88315 46.8143C2.88315 47.4572 4.35156 48 5.04194 48H6.17857C6.86895 48 8.33736 47.4013 8.33736 46.7576L7.5647 19.152L9.33269 14.8468L9.63227 14.1163C10.438 12.9139 10.7814 11.2846 10.7814 9.48593Z"
          fill="#000"/>
</svg>
