<svg width="18" height="18" viewBox="0 0 18 18" fill="none" xmlns="http://www.w3.org/2000/svg">
    <path d="M1.20714e-06 5.99401C-0.000473248 5.20621 0.138917 4.42605 0.410191 3.69819C0.681465 2.97034 1.07929 2.30909 1.58089 1.75231C2.0825 1.19553 2.67802 0.754165 3.33336 0.453478C3.9887 0.152791 4.69098 -0.00130701 5.4 8.35024e-06H12.6C15.5817 8.35024e-06 18 2.69501 18 5.99401V18H5.4C2.4183 18 1.20714e-06 15.305 1.20714e-06 12.006V5.99401ZM10.8 8.00001V10H12.6V8.00001H10.8ZM5.4 8.00001V10H7.2V8.00001H5.4Z"
          fill="#000"/>
</svg>
