<?xml version='1.0' encoding='utf-8'?>
<!DOCTYPE svg PUBLIC '-//W3C//DTD SVG 1.1//EN' 'http://www.w3.org/Graphics/SVG/1.1/DTD/svg11.dtd'>
<svg version="1.1" xmlns="http://www.w3.org/2000/svg" viewBox="0 0 512 512" xmlns:xlink="http://www.w3.org/1999/xlink" enable-background="new 0 0 512 512">
  <g>
    <g>
      <path d="m112.3,274.7c-27.5,0-53.2,12.1-72.4,34-18.6,21.2-28.9,49.2-28.9,78.8-0.1,62.3 45.3,113 101.1,113.1l123.3,.2 .2-226-123.3-.2c2.84217e-14,0.1 2.84217e-14,0.1 2.84217e-14,0.1z"/>
      <path d="m399.9,275l-123.3-.2-.2,226 123.3,.2c0,0 0.1,0 0.1,0 27.5,0 53.2-12.1 72.4-34 18.6-21.2 28.8-49.2 28.8-78.9 0.1-62.3-45.3-113-101.1-113.1z"/>
      <path d="m112.3,233.7l68.5,.1v-222.8c-81.8,10.2-145.4,80.2-145.4,165.1-7.10543e-15,25.1 5.8,49.8 16.6,72.2 18.6-9.5 39-14.6 60.3-14.6z"/>
      <path d="m366.9,176.1c0-84.8-63.6-154.9-145.3-165.1v222.9l134.9,.2c6.8-18.4 10.4-37.9 10.4-58z"/>
    </g>
  </g>
</svg>
